<svg xmlns="http://www.w3.org/2000/svg" version="1.1" xmlns:xlink="http://www.w3.org/1999/xlink" xmlns:svgjs="http://svgjs.dev/svgjs" width="1500" height="1500" viewBox="0 0 1500 1500"><rect width="1500" height="1500" fill="#ffffff"></rect><g transform="matrix(0.6666666666666666,0,0,0.6666666666666666,249.39393939393938,537.99773322641)"><svg viewBox="0 0 396 168" data-background-color="#ffffff" preserveAspectRatio="xMidYMid meet" height="636" width="1500" xmlns="http://www.w3.org/2000/svg" xmlns:xlink="http://www.w3.org/1999/xlink"><g id="tight-bounds" transform="matrix(1,0,0,1,0.2400000000000091,0.0008981555733811319)"><svg viewBox="0 0 395.52 167.99820368885324" height="167.99820368885324" width="395.52"><g><svg viewBox="0 0 395.52 167.99820368885324" height="167.99820368885324" width="395.52"><g><svg viewBox="0 0 395.52 167.99820368885324" height="167.99820368885324" width="395.52"><g id="textblocktransform"><svg viewBox="0 0 395.52 167.99820368885324" height="167.99820368885324" width="395.52" id="textblock"><g><svg viewBox="0 0 395.52 167.99820368885324" height="167.99820368885324" width="395.52"><g transform="matrix(1,0,0,1,0,0)"><svg width="395.52" viewBox="1.95 -38.18 91.33 38.79" height="167.99820368885324" data-palette-color="#6caabd"><path d="M9.77 0.61L9.77 0.61Q6.18 0.61 4.06-1.4 1.95-3.42 1.95-6.96L1.95-6.96Q1.95-8.79 2.62-10.36 3.3-11.94 4.97-13.15 6.64-14.36 9.66-15.09 12.67-15.82 17.36-15.94L17.36-15.94Q17.36-18.16 16.25-19.14 15.14-20.12 12.92-20.12L12.92-20.12Q10.91-20.12 9.64-19.43 8.37-18.75 8.06-18.51L8.06-18.51Q7.71-18.21 7.23-18.29L7.23-18.29Q6.57-18.38 5.82-18.63 5.08-18.87 4.22-19.19L4.22-19.19Q4.1-19.24 3.96-19.35 3.81-19.46 3.78-19.68L3.78-19.68Q3.78-19.8 3.81-19.98 3.83-20.17 3.93-20.65L3.93-20.65Q4.03-21.14 4.22-21.86 4.42-22.58 4.59-22.97L4.59-22.97Q4.81-23.39 5.32-23.75L5.32-23.75Q5.74-24.1 7.84-24.85 9.94-25.61 13.92-25.61L13.92-25.61Q24.88-25.61 24.88-14.94L24.88-14.94 24.88-1.12Q24.88-0.66 24.62-0.33 24.37 0 23.75 0L23.75 0 20.09 0Q19.7 0 19.4-0.11 19.09-0.22 18.82-0.54L18.82-0.54 17.31-2.49 17.14-2.49Q16.02-0.85 14.12-0.12 12.23 0.61 9.77 0.61ZM12.45-5.05L12.45-5.05Q14.7-5.05 15.84-6.2 16.99-7.35 17.31-8.57L17.31-8.57 17.31-11.28Q13.92-11.28 12.22-10.75 10.52-10.23 9.96-9.39 9.4-8.54 9.4-7.57L9.4-7.57Q9.4-6.15 10.28-5.6 11.16-5.05 12.45-5.05ZM43.72 0.61L43.72 0.61Q39.6 0.61 36.55-0.72 33.49-2.05 31.81-4.86 30.12-7.67 30.12-12.11L30.12-12.11Q30.12-18.77 33.54-22.19 36.96-25.61 42.62-25.61L42.62-25.61Q46.31-25.61 48.86-24.29 51.41-22.97 52.74-20.65 54.07-18.33 54.07-15.36L54.07-15.36Q54.07-12.45 52.59-11.3 51.1-10.16 48.24-10.16L48.24-10.16 37.77-10.16Q37.96-7.64 39.61-6.32 41.26-5 44.09-5L44.09-5Q46.34-5 47.69-5.68 49.05-6.35 49.58-6.74L49.58-6.74Q50.05-7.08 50.63-7.06L50.63-7.06Q51.1-7.06 51.96-6.87 52.83-6.69 53.68-6.2L53.68-6.2Q54.29-5.88 54.29-5.32L54.29-5.32Q54.29-5 54.17-4.42L54.17-4.42Q54.1-4.08 53.93-3.43 53.76-2.78 53.49-2.22L53.49-2.22Q53.34-1.95 53.02-1.71L53.02-1.71Q52.54-1.37 51.45-0.81 50.36-0.24 48.48 0.18 46.6 0.61 43.72 0.61ZM37.72-15.16L37.72-15.16 45.68-15.16Q46.92-15.16 46.92-16.31L46.92-16.31Q46.92-18.04 45.83-19.23 44.75-20.41 42.58-20.41L42.58-20.41Q40.21-20.41 39.1-18.9 37.99-17.38 37.72-15.16ZM77.27 0L60.18 0Q58.95 0 58.1-0.67 57.25-1.34 57.18-2.5 57.12-3.66 58.27-5.13L58.27-5.13 69.33-19.31 59.98-19.31Q59.54-19.31 59.3-19.48L59.3-19.48Q58.3-20.29 57.2-21.7L57.2-21.7Q57-22.02 57-22.17L57-22.17Q57-22.34 57.2-22.61L57.2-22.61Q58.3-24.02 59.3-24.83L59.3-24.83Q59.59-25 59.98-25L59.98-25 75.87-25Q78.32-25 78.97-23.43 79.63-21.85 78.12-19.9L78.12-19.9 67.23-5.69 77.27-5.69Q77.7-5.69 77.95-5.52L77.95-5.52Q78.95-4.71 80.05-3.3L80.05-3.3Q80.24-2.98 80.24-2.83L80.24-2.83Q80.24-2.66 80.05-2.39L80.05-2.39Q78.95-0.98 77.95-0.17L77.95-0.17Q77.66 0 77.27 0L77.27 0ZM83.27-33.2L83.27-33.2Q83.27-33.52 83.46-33.76 83.66-34.01 83.98-34.4L83.98-34.4Q84.66-35.18 85.56-36.05 86.47-36.91 87.39-37.72L87.39-37.72Q87.98-38.18 88.27-38.18L88.27-38.18Q88.57-38.18 89.18-37.72L89.18-37.72Q91.15-36.01 92.55-34.4L92.55-34.4Q92.86-34.03 93.07-33.78 93.28-33.52 93.28-33.2L93.28-33.2Q93.28-32.89 93.07-32.64 92.86-32.4 92.52-31.98L92.52-31.98Q91.86-31.23 90.98-30.36 90.1-29.49 89.18-28.71L89.18-28.71Q88.84-28.42 88.64-28.33 88.44-28.25 88.27-28.25L88.27-28.25Q88.1-28.25 87.92-28.33 87.74-28.42 87.35-28.71L87.35-28.71Q86.37-29.49 85.51-30.36 84.66-31.23 83.98-32.03L83.98-32.03Q83.66-32.42 83.46-32.65 83.27-32.89 83.27-33.2ZM92.11-23.71L92.11-1.29Q92.11-0.56 91.8-0.28 91.5 0 90.76 0L90.76 0 85.73 0Q85 0 84.7-0.28 84.39-0.56 84.39-1.29L84.39-1.29 84.39-23.71Q84.39-24.44 84.7-24.72 85-25 85.73-25L85.73-25 90.76-25Q91.5-25 91.8-24.72 92.11-24.44 92.11-23.71L92.11-23.71Z" opacity="1" transform="matrix(1,0,0,1,0,0)" fill="#000000" class="wordmark-text-0" data-fill-palette-color="primary" id="text-0"></path></svg></g></svg></g></svg></g></svg></g></svg></g><defs></defs></svg><rect width="395.52" height="167.99820368885324" fill="none" stroke="none" visibility="hidden"></rect></g></svg></g></svg>